<svg viewBox="0 0 600 320" width="600" height="320" xmlns="http://www.w3.org/2000/svg" font-family="system-ui,-apple-system,Segoe UI,sans-serif">
  <rect width="600" height="320" fill="#ffffff"/>

  <!-- card -->
  <rect x="120" y="44" width="360" height="232" rx="12" fill="#f7f7f7" stroke="#e0e0e0" stroke-width="1"/>

  <!-- regenerate icon (top-right) -->
  <g transform="translate(438,64) scale(0.9)" fill="none" stroke="#005fb8" stroke-width="2" stroke-linecap="round" stroke-linejoin="round">
    <path d="M3 12a9 9 0 0 1 9-9 9.75 9.75 0 0 1 6.74 2.74L21 8"/>
    <path d="M21 3v5h-5"/>
    <path d="M21 12a9 9 0 0 1-9 9 9.75 9.75 0 0 1-6.74-2.74L3 16"/>
    <path d="M3 21v-5h5"/>
  </g>

  <!-- sparkle -->
  <g transform="translate(186,92) scale(0.72)" fill="none" stroke="#005fb8" stroke-width="2" stroke-linecap="round" stroke-linejoin="round">
    <path d="M12 3l1.6 6.4L20 11l-6.4 1.6L12 19l-1.6-6.4L4 11l6.4-1.6z"/>
  </g>

  <!-- folder (docGerada) -->
  <g transform="translate(150,116) scale(2.6)" fill="none" stroke="#005fb8" stroke-width="1.7" stroke-linecap="round" stroke-linejoin="round">
    <path d="M4 20h16a2 2 0 0 0 2-2V8a2 2 0 0 0-2-2h-7.93a2 2 0 0 1-1.66-.9l-.82-1.2A2 2 0 0 0 7.93 3H4a2 2 0 0 0-2 2v13c0 1.1.9 2 2 2Z"/>
  </g>
  <text x="181" y="206" text-anchor="middle" fill="#005fb8" font-size="12" font-weight="600">docGerada/</text>

  <!-- branch connector -->
  <g stroke="#cfcfcf" stroke-width="1.3" fill="none">
    <path d="M214 150 H262"/>
    <path d="M262 118 V214"/>
    <path d="M262 118 H286"/>
    <path d="M262 150 H286"/>
    <path d="M262 182 H286"/>
    <path d="M262 214 H286"/>
  </g>

  <!-- generated files -->
  <g transform="translate(290,109) scale(0.62)" fill="none" stroke="#005fb8" stroke-width="2.2" stroke-linecap="round" stroke-linejoin="round">
    <path d="M14 2H6a2 2 0 0 0-2 2v16a2 2 0 0 0 2 2h12a2 2 0 0 0 2-2V8z"/>
    <polyline points="14 2 14 8 20 8"/>
  </g>
  <text x="312" y="122" fill="#005fb8" font-size="12" font-weight="600">index.md</text>

  <g transform="translate(290,141) scale(0.62)" fill="none" stroke="#8a8a8a" stroke-width="2.2" stroke-linecap="round" stroke-linejoin="round">
    <path d="M14 2H6a2 2 0 0 0-2 2v16a2 2 0 0 0 2 2h12a2 2 0 0 0 2-2V8z"/>
    <polyline points="14 2 14 8 20 8"/>
  </g>
  <text x="312" y="154" fill="#6e6e6e" font-size="12">estrutura.md</text>

  <g transform="translate(290,173) scale(0.62)" fill="none" stroke="#8a8a8a" stroke-width="2.2" stroke-linecap="round" stroke-linejoin="round">
    <path d="M14 2H6a2 2 0 0 0-2 2v16a2 2 0 0 0 2 2h12a2 2 0 0 0 2-2V8z"/>
    <polyline points="14 2 14 8 20 8"/>
  </g>
  <text x="312" y="186" fill="#6e6e6e" font-size="12">dependencias.md</text>

  <g transform="translate(290,205) scale(0.62)" fill="none" stroke="#8a8a8a" stroke-width="2.2" stroke-linecap="round" stroke-linejoin="round">
    <path d="M14 2H6a2 2 0 0 0-2 2v16a2 2 0 0 0 2 2h12a2 2 0 0 0 2-2V8z"/>
    <polyline points="14 2 14 8 20 8"/>
  </g>
  <text x="312" y="218" fill="#6e6e6e" font-size="12">fluxos.md</text>
</svg>
