<svg viewBox="0 0 600 320" width="600" height="320" xmlns="http://www.w3.org/2000/svg" font-family="system-ui,-apple-system,Segoe UI,sans-serif">
  <rect width="600" height="320" fill="#1e1e1e"/>

  <!-- panel card -->
  <rect x="150" y="44" width="300" height="232" rx="12" fill="#252526" stroke="#3c3c3c" stroke-width="1"/>

  <!-- wordmark -->
  <g transform="translate(172,57) scale(0.8)" fill="none" stroke="#3794ff" stroke-width="1.9" stroke-linecap="round" stroke-linejoin="round">
    <path d="M14 2H6a2 2 0 0 0-2 2v16a2 2 0 0 0 2 2h12a2 2 0 0 0 2-2V8z"/>
    <polyline points="14 2 14 8 20 8"/>
    <line x1="8" y1="13" x2="16" y2="13"/>
    <line x1="8" y1="17" x2="16" y2="17"/>
    <line x1="8" y1="9" x2="10" y2="9"/>
  </g>
  <text x="200" y="73" fill="#3794ff" font-size="16" font-weight="600">Docspace</text>
  <line x1="170" y1="92" x2="430" y2="92" stroke="#3c3c3c" stroke-width="1"/>

  <!-- Docs -->
  <g transform="translate(176,122) scale(0.78)" fill="none" stroke="#858585" stroke-width="1.9" stroke-linecap="round" stroke-linejoin="round">
    <path d="M14 2H6a2 2 0 0 0-2 2v16a2 2 0 0 0 2 2h12a2 2 0 0 0 2-2V8z"/>
    <polyline points="14 2 14 8 20 8"/>
    <line x1="8" y1="13" x2="16" y2="13"/>
    <line x1="8" y1="17" x2="16" y2="17"/>
  </g>
  <text x="208" y="137" fill="#d4d4d4" font-size="14">Docs</text>
  <rect x="396" y="120" width="30" height="22" rx="11" fill="none" stroke="#3794ff" stroke-width="1.4"/>
  <text x="411" y="136" text-anchor="middle" fill="#3794ff" font-size="12" font-weight="600">3</text>

  <!-- Diagrams -->
  <g transform="translate(176,170) scale(0.78)" fill="none" stroke="#858585" stroke-width="1.9" stroke-linecap="round" stroke-linejoin="round">
    <rect x="3" y="3" width="8" height="8" rx="2"/>
    <path d="M7 11v4a2 2 0 0 0 2 2h4"/>
    <rect x="13" y="13" width="8" height="8" rx="2"/>
  </g>
  <text x="208" y="185" fill="#d4d4d4" font-size="14">Diagrams</text>
  <rect x="396" y="168" width="30" height="22" rx="11" fill="none" stroke="#3794ff" stroke-width="1.4"/>
  <text x="411" y="184" text-anchor="middle" fill="#3794ff" font-size="12" font-weight="600">1</text>

  <!-- Canvas -->
  <g transform="translate(176,218) scale(0.78)" fill="none" stroke="#858585" stroke-width="1.9" stroke-linecap="round" stroke-linejoin="round">
    <path d="M8.3 10a.7.7 0 0 1-.626-1.079L11.4 3a.7.7 0 0 1 1.198-.043L16.3 8.9a.7.7 0 0 1-.572 1.1Z"/>
    <rect x="3" y="14" width="7" height="7" rx="1"/>
    <circle cx="17.5" cy="17.5" r="3.5"/>
  </g>
  <text x="208" y="233" fill="#d4d4d4" font-size="14">Canvas</text>
  <rect x="396" y="216" width="30" height="22" rx="11" fill="none" stroke="#3794ff" stroke-width="1.4"/>
  <text x="411" y="232" text-anchor="middle" fill="#3794ff" font-size="12" font-weight="600">2</text>
</svg>
