<svg viewBox="0 0 600 320" xmlns="http://www.w3.org/2000/svg" font-family="system-ui,-apple-system,sans-serif">
  <!-- background -->
  <rect width="600" height="320" fill="#1e1e2e"/>

  <!-- panel header -->
  <rect width="600" height="38" fill="#252535"/>
  <text x="14" y="24" fill="#89b4fa" font-size="11" font-weight="700" letter-spacing="1.2">DOCSPACE</text>
  <!-- header icons -->
  <text x="534" y="24" fill="#6c7086" font-size="16">⊕</text>
  <text x="558" y="24" fill="#6c7086" font-size="16">↕</text>
  <text x="578" y="24" fill="#6c7086" font-size="16">⚙</text>

  <!-- ── Docs category ── -->
  <rect x="0" y="46" width="600" height="32" fill="#2a2a40"/>
  <text x="12" y="67" fill="#89b4fa" font-size="12">▾</text>
  <text x="30" y="67" fill="#cdd6f4" font-size="13" font-weight="600">Docs</text>
  <rect x="544" y="53" width="22" height="16" rx="8" fill="#313155"/>
  <text x="555" y="65" text-anchor="middle" fill="#89b4fa" font-size="10" font-weight="600">3</text>

  <!-- Docs files -->
  <rect x="0" y="78" width="600" height="26" fill="#1e1e2e"/>
  <text x="14" y="95" fill="#6c7086" font-size="10">📄</text>
  <text x="32" y="95" fill="#a6adc8" font-size="12">README.md</text>

  <rect x="0" y="104" width="600" height="26" fill="#252535"/>
  <text x="14" y="121" fill="#6c7086" font-size="10">📄</text>
  <text x="32" y="121" fill="#a6adc8" font-size="12">API.md</text>

  <rect x="0" y="130" width="600" height="26" fill="#1e1e2e"/>
  <text x="14" y="147" fill="#6c7086" font-size="10">📄</text>
  <text x="32" y="147" fill="#a6adc8" font-size="12">SETUP.md</text>

  <!-- ── Diagrams category ── -->
  <rect x="0" y="162" width="600" height="32" fill="#2a2a40"/>
  <text x="12" y="183" fill="#89b4fa" font-size="12">▾</text>
  <text x="30" y="183" fill="#cdd6f4" font-size="13" font-weight="600">Diagrams</text>
  <rect x="544" y="169" width="22" height="16" rx="8" fill="#313155"/>
  <text x="555" y="181" text-anchor="middle" fill="#89b4fa" font-size="10" font-weight="600">1</text>

  <rect x="0" y="194" width="600" height="26" fill="#1e1e2e"/>
  <text x="14" y="211" fill="#6c7086" font-size="10">◈</text>
  <text x="32" y="211" fill="#a6adc8" font-size="12">architecture.mmd</text>

  <!-- ── Canvas category ── -->
  <rect x="0" y="226" width="600" height="32" fill="#2a2a40"/>
  <text x="12" y="247" fill="#89b4fa" font-size="12">▾</text>
  <text x="30" y="247" fill="#cdd6f4" font-size="13" font-weight="600">Canvas</text>
  <rect x="544" y="233" width="22" height="16" rx="8" fill="#313155"/>
  <text x="555" y="245" text-anchor="middle" fill="#89b4fa" font-size="10" font-weight="600">2</text>

  <rect x="0" y="258" width="600" height="26" fill="#1e1e2e"/>
  <text x="14" y="275" fill="#6c7086" font-size="10">✏</text>
  <text x="32" y="275" fill="#a6adc8" font-size="12">wireframe.excalidraw</text>

  <rect x="0" y="284" width="600" height="26" fill="#252535"/>
  <text x="14" y="301" fill="#6c7086" font-size="10">✏</text>
  <text x="32" y="301" fill="#a6adc8" font-size="12">roadmap.excalidraw</text>

  <!-- right accent bar -->
  <rect x="596" y="78" width="4" height="78" rx="2" fill="#89b4fa" opacity="0.5"/>
</svg>
